<?xml version="1.0" encoding="utf-8"?>
<!-- Generator: Adobe Illustrator 24.3.0, SVG Export Plug-In . SVG Version: 6.00 Build 0)  -->
<svg version="1.1" id="Capa_1" xmlns="http://www.w3.org/2000/svg" xmlns:xlink="http://www.w3.org/1999/xlink" x="0px" y="0px"
	 viewBox="0 0 463.9 463.9" style="enable-background:new 0 0 463.9 463.9;" xml:space="preserve">
<style type="text/css">
	.st0{stroke:#828685;stroke-miterlimit:10;}
	.st1{fill:#828685;}
	.st2{fill:#DD4A43;}
	.st3{fill:#FDB62F;}
</style>
<g>
	<g>
		<path d="M416.3,236.7l-28.1-24L238.5,84.8c-3.7-3.2-9.2-3.2-13,0L75.8,212.7l-28.1,24c-4.2,3.6-4.7,9.9-1.1,14.1
			c3.5,4.2,9.7,4.7,13.8,1.2l0.1-0.1L73,241.1v187.5c0.1,5.6,4.7,10.2,10.3,10.3h297.3c5.6-0.1,10.2-4.6,10.3-10.3V241.1l12.5,10.8
			c1.8,1.5,4,2.4,6.4,2.4c2.9,0,5.7-1.3,7.6-3.5C421.1,246.5,420.5,240.2,416.3,236.7z M172,418.8H93V224l139-118.4L371,224v194.8
			h-79"/>
	</g>
</g>
<path class="st0" d="M180,401.2v-54.5c0-9.8,6.6-17.8,18-17.8h54c11.4,0,18,8,18,17.8v54.5c0,9.8-6.6,17.8-18,17.8h-54
	C186.6,418.9,180,411,180,401.2z"/>
<g>
	<path class="st1" d="M180,364.9H38.8c-1.6,0-2.8,1.3-2.8,2.8v3.3c0,1.6-1.3,2.8-2.8,2.8H20.8c-1.6,0-2.8-1.3-2.8-2.8V214.8
		c0-1.6,1.3-2.8,2.8-2.8h12.3c1.6,0,2.8,1.3,2.8,2.8v129.3c0,1.6,1.3,2.8,2.8,2.8H180V364.9z"/>
</g>
<path class="st1" d="M27,202.9H15.8c-2.5,0-3.8-3.1-2-4.8L25,186.9c1.1-1.1,2.9-1.1,4,0l11.2,11.2c1.8,1.8,0.5,4.8-2,4.8H27z"/>
<rect x="90" y="220.9" width="288" height="18"/>
<path class="st2" d="M247.6,376.3c-1.3-6,1.3-8.4,1.3-8.4c-4.1,0.1-7.8,2.5-9.4,6c-1.5,3.4-0.8,6.8-4.8,8.9c-1.9,1.1-4.3,1.1-6.2,0
	c-1.8-1.2-2.8-3.2-2.6-5.2c0.6-2.6,1.9-5.1,3.7-7.1c1.8-2.8,2.1-6.1,1-9.1c-1-2.9-2.5-5.7-4.4-8.2c-0.9-1.4-2-2.6-3.1-3.8
	c-0.7-0.7-2.5-1.7-2.9-2.5c2.9,6.1-0.1,13.5-4.3,18.4c-6.5,7.5-14.5,13-17,22.7c-1.9,6.7-0.9,13.8,2.7,19.8
	c4,6.2,10.9,10.4,18.7,11.1h11.5c4.6-1,8.8-3,12.3-6c5.1-4.1,7.9-10.1,7.9-16.4C252.2,389.6,249.1,383.1,247.6,376.3z"/>
<path class="st3" d="M220.3,418.9c-2.1-2.2-3.1-5.1-2.9-8c0-8,8.6-13.3,8.6-13.3s8.6,5.3,8.6,13.3c0.2,2.9-0.9,5.8-2.9,8"/>
</svg>
