<?xml version="1.0" encoding="utf-8"?>
<!-- Generator: Adobe Illustrator 24.3.0, SVG Export Plug-In . SVG Version: 6.00 Build 0)  -->
<svg version="1.1" id="Слой_1" xmlns="http://www.w3.org/2000/svg" xmlns:xlink="http://www.w3.org/1999/xlink" x="0px" y="0px"
	 viewBox="0 0 648 648" style="enable-background:new 0 0 648 648;" xml:space="preserve">
<style type="text/css">
	.st0{stroke:#000000;stroke-miterlimit:10; fill: #000000}
	.st1{fill:#DD4A43;}
	.st2{fill:#FDB62F;}
</style>
<path class="st0" d="M340.1,43.1L76.2,306.9c-6.3,6.3-1.8,17.1,7.1,17.1h14.6c4,0,7.8-1.6,10.6-4.4L347.1,81l238.6,238.6
	c2.8,2.8,6.6,4.4,10.6,4.4H611c8.9,0,13.4-10.8,7.1-17.1L354.2,43.1C350.3,39.2,344,39.2,340.1,43.1z"/>
<path class="st0" d="M146.2,290.9l-15.5,15.5c-3.1,3.1-0.9,8.5,3.5,8.5h425.9c4.5,0,6.7-5.4,3.5-8.5l-15.5-15.5
	c-1.9-1.9-4.4-2.9-7.1-2.9H153.3C150.6,288,148.1,289.1,146.2,290.9z"/>
<path class="st0" d="M244,432h124c5.5,0,10,4.5,10,10v115c0,5.5-4.5,10-10,10H244c-5.5,0-10-4.5-10-10V442
	C234,436.5,238.5,432,244,432z"/>
<g>
	<path class="st1" d="M335.9,499.4c-1.9-8.2,1.9-11.5,1.9-11.5c-5.7,0.2-10.7,3.4-13,8.2c-2.1,4.6-1.1,9.3-6.6,12.3
		c-2.6,1.5-5.9,1.5-8.5,0.1c-2.5-1.6-3.8-4.3-3.6-7.1c0.8-3.6,2.6-7,5.1-9.8c2.4-3.8,2.9-8.4,1.4-12.5c-1.4-4-3.4-7.8-6-11.3
		c-1.3-1.9-2.7-3.6-4.3-5.3c-0.9-0.9-3.4-2.3-3.9-3.4c4,8.4-0.1,18.6-6,25.3c-8.9,10.2-19.9,17.8-23.4,31.3
		c-2.6,9.2-1.3,18.9,3.6,27.2c5.5,8.6,15,14.2,25.7,15.3h15.8c6.3-1.4,12.1-4.2,16.9-8.2c6.9-5.7,10.9-13.9,10.8-22.5
		C342.2,517.6,338,508.7,335.9,499.4z"/>
	<path class="st2" d="M298.4,558c-2.8-3-4.3-7-4-11c0-11,11.9-18.3,11.9-18.3s11.9,7.3,11.9,18.3c0.2,4-1.2,7.9-4,11"/>
</g>
<g>
	<path class="st0" d="M167.1,324h-36v112c0,2.8,2.2,5,5,5h26c2.8,0,5-2.2,5-5V324z"/>
	<path class="st0" d="M527.1,324v247c0,2.8-2.2,5-5,5h-350c-2.8,0-5-2.2-5-5v-80c0-2.8-2.2-5-5-5h-26c-2.8,0-5,2.2-5,5v111
		c0,5.5,4.5,10,10,10h412c5.5,0,10-4.5,10-10V324H527.1z"/>
	<path class="st0" d="M131.1,450H63V275c0-2.8-2.2-5-5-5H41c-2.8,0-5,2.2-5,5v202v13c0,2.8,2.2,5,5,5h17c2.8,0,5-2.2,5-5v-13h68.1
		h108v-27H131.1z"/>
</g>
<path class="st0" d="M41.2,237.7l-13.4,17c-2.1,2.7,0.2,6.2,3.9,6.2h35.5c3.8,0,6-3.6,3.9-6.2l-13.4-17c-1.8-2.3-4.9-3.7-8.3-3.7h0
	C46.2,234,43.1,235.4,41.2,237.7z"/>
</svg>
