<?xml version="1.0"?>
<svg xmlns="http://www.w3.org/2000/svg" xmlns:xlink="http://www.w3.org/1999/xlink" xmlns:svgjs="http://svgjs.com/svgjs"
     version="1.1" width="42.997" height="42.984" x="0" y="0" viewBox="0 0 512 512" style="enable-background:new 0 0 512 512"
     xml:space="preserve" class=""><g><g xmlns="http://www.w3.org/2000/svg" id="Review"><path d="M496,48H200a8,8,0,0,0-8,8v80H16a8,8,0,0,0-8,8V384a8,8,0,0,0,8,8H72v64a8,8,0,0,0,13.657,5.657L155.313,392H376a8,8,0,0,0,8-8V248h20.687l53.656,53.657A8,8,0,0,0,472,296V248h24a8,8,0,0,0,8-8V56A8,8,0,0,0,496,48ZM368,376H152a8,8,0,0,0-5.657,2.343L88,436.686V384a8,8,0,0,0-8-8H24V152H368ZM488,232H464a8,8,0,0,0-8,8v36.687l-42.343-42.344A8,8,0,0,0,408,232H384V144a8,8,0,0,0-8-8H208V64H488Z" fill="#000000" data-original="#000000" style="" class=""/><path
        d="M200,360a96,96,0,1,0-96-96A96.108,96.108,0,0,0,200,360Zm0-176a80,80,0,1,1-80,80A80.091,80.091,0,0,1,200,184Z"
        fill="#000000" data-original="#000000" style="" class=""/><path
        d="M368,88h72a8,8,0,0,0,0-16H368a8,8,0,0,0,0,16Z" fill="#000000" data-original="#000000" style="" class=""/><path
        d="M464,88h8a8,8,0,0,0,0-16h-8a8,8,0,0,0,0,16Z" fill="#000000" data-original="#000000" style="" class=""/><path
        d="M153.753,283A8,8,0,0,0,155,294.247c14.72,11.775,29.858,17.663,45,17.663s30.278-5.888,45-17.663a8,8,0,0,0-10-12.494c-23.879,19.1-46.125,19.1-70,0A8,8,0,0,0,153.753,283Z"
        fill="#000000" data-original="#000000" style="" class=""/><path
        d="M157.656,245.657c7.541-7.54,13.147-7.54,20.688,0a8,8,0,1,0,11.312-11.314c-13.761-13.762-29.551-13.762-43.312,0a8,8,0,1,0,11.312,11.314Z"
        fill="#000000" data-original="#000000" style="" class=""/><path
        d="M221.656,245.657c7.541-7.54,13.147-7.54,20.688,0a8,8,0,1,0,11.312-11.314c-13.761-13.762-29.551-13.762-43.312,0a8,8,0,1,0,11.312,11.314Z"
        fill="#000000" data-original="#000000" style="" class=""/></g></g></svg>
